# xmcd
#
# Track frame offsets: 
#        150
#        17098
#        33123
#        47446
#        63899
#        77569
#        93294
#        108984
#        125772
#        145467
#        161442
#        177992
#        191877
#        206152
#
# Disc length: 2982 seconds
#
# Revision: 3
# Processed by: cddbd v1.5.2PL0 Copyright (c) Steve Scherf et al.
# Submitted via: ExactAudioCopy v0.95a5
#
DISCID=ba0ba40e
DTITLE=Various Artist - HOT HITS COUNTRY VOL 64
DYEAR=1900
DGENRE=Country
TTITLE0=Trisha Yearwood - I Need You
TTITLE1=Kenny Chesney - When I Close My Eyes
TTITLE2=Lonestar - Heartbroke Every Day
TTITLE3=Mark Wills - Places I've Never Been
TTITLE4=Clay Walker - Rumor Has It
TTITLE5=Lorrie Morgan - Good As I Was To You
TTITLE6=BR5 49 - Little Ramona (Gone Hillbilly Nuts)
TTITLE7=Buffalo Club - If She Don't Love You
TTITLE8=Gene Watson - Change Her Mind
TTITLE9=Big House - Cold Outside
TTITLE10=Kippi Brannon - Daddy's Little Girl
TTITLE11=George Ducas - Long Trail Of Tears
TTITLE12=Rhett Akins - Somebody Knew
TTITLE13=Burnin Daylight - Say Yes
EXTD=
EXTT0=
EXTT1=
EXTT2=
EXTT3=
EXTT4=
EXTT5=
EXTT6=
EXTT7=
EXTT8=
EXTT9=
EXTT10=
EXTT11=
EXTT12=
EXTT13=
PLAYORDER=
